<svg width="48" height="48" viewBox="0 0 48 48" fill="none" xmlns="http://www.w3.org/2000/svg">
<path d="M32.3499 20.9229L31.9837 20.7192C31.9269 20.6876 31.8989 20.6717 31.8714 20.6552C31.5983 20.4917 31.3682 20.2656 31.2002 19.9952C31.1833 19.968 31.1674 19.9395 31.1348 19.8831C31.1023 19.8268 31.0858 19.7982 31.0706 19.77C30.92 19.4887 30.8385 19.1752 30.8336 18.8561C30.8331 18.824 30.8332 18.7912 30.8343 18.726L30.8415 18.3008C30.8529 17.6203 30.8587 17.2789 30.763 16.9726C30.6781 16.7005 30.536 16.4499 30.3462 16.2373C30.1317 15.9969 29.8347 15.8253 29.2402 15.4828L28.7464 15.1982C28.1536 14.8566 27.8571 14.6857 27.5423 14.6206C27.2639 14.5629 26.9765 14.5656 26.6991 14.6279C26.3859 14.6982 26.0931 14.8735 25.5079 15.224L25.5045 15.2255L25.1507 15.4374C25.0948 15.4709 25.0665 15.4878 25.0384 15.5034C24.7601 15.6581 24.4495 15.7437 24.1312 15.7539C24.0992 15.7549 24.0665 15.7549 24.0013 15.7549C23.9365 15.7549 23.9024 15.7549 23.8704 15.7539C23.5515 15.7436 23.2402 15.6576 22.9615 15.5022C22.9334 15.4866 22.9056 15.4696 22.8496 15.4359L22.4935 15.2221C21.9042 14.8684 21.6091 14.6912 21.2943 14.6206C21.0157 14.5581 20.7274 14.5563 20.4479 14.6147C20.1324 14.6806 19.8358 14.8528 19.2426 15.197L19.2399 15.1982L18.7523 15.4812L18.7469 15.4845C18.159 15.8257 17.8644 15.9967 17.6517 16.2361C17.4629 16.4486 17.3218 16.6988 17.2374 16.9702C17.1419 17.2769 17.147 17.619 17.1585 18.3027L17.1657 18.7274C17.1668 18.7917 17.1686 18.8236 17.1682 18.8552C17.1634 19.175 17.0809 19.4891 16.9297 19.771C16.9148 19.7988 16.8987 19.8267 16.8665 19.8824C16.8344 19.9381 16.8188 19.9658 16.8021 19.9927C16.6334 20.2645 16.4021 20.4919 16.1273 20.6557C16.1001 20.6719 16.0715 20.6875 16.0152 20.7187L15.6536 20.9191C15.0521 21.2524 14.7514 21.4193 14.5326 21.6567C14.339 21.8667 14.1928 22.1158 14.1035 22.3872C14.0026 22.6939 14.0027 23.0378 14.0042 23.7255L14.0055 24.2877C14.0071 24.9708 14.0092 25.3122 14.1103 25.6168C14.1998 25.8863 14.3449 26.134 14.5374 26.3427C14.755 26.5787 15.0527 26.7445 15.6497 27.0766L16.0081 27.276C16.0691 27.3099 16.0998 27.3266 16.1292 27.3444C16.4015 27.5083 16.6309 27.735 16.7982 28.0053C16.8163 28.0345 16.8336 28.0648 16.8683 28.1255C16.9026 28.1853 16.9201 28.2152 16.9359 28.2452C17.0826 28.5229 17.1611 28.8315 17.1665 29.1455C17.1671 29.1794 17.1666 29.2137 17.1654 29.2827L17.1585 29.6902C17.147 30.3763 17.1419 30.7197 17.2379 31.0273C17.3229 31.2994 17.4648 31.55 17.6546 31.7627C17.8692 32.0031 18.1666 32.1745 18.7611 32.5171L19.2548 32.8015C19.8476 33.1432 20.1439 33.3138 20.4587 33.379C20.7371 33.4366 21.0246 33.4344 21.3021 33.3721C21.6157 33.3017 21.9095 33.1258 22.4964 32.7743L22.8502 32.5625C22.9062 32.5289 22.9346 32.5121 22.9626 32.4965C23.2409 32.3418 23.5512 32.2558 23.8695 32.2456C23.9015 32.2446 23.9342 32.2446 23.9994 32.2446C24.0648 32.2446 24.0974 32.2446 24.1295 32.2456C24.4484 32.2559 24.7607 32.3422 25.0394 32.4975C25.0639 32.5112 25.0885 32.526 25.1316 32.5519L25.5078 32.7777C26.0971 33.1315 26.3916 33.3081 26.7065 33.3788C26.985 33.4413 27.2736 33.4438 27.5531 33.3855C27.8685 33.3196 28.1657 33.1471 28.7586 32.803L29.2536 32.5157C29.8418 32.1743 30.1367 32.0031 30.3495 31.7636C30.5383 31.5512 30.6796 31.3011 30.764 31.0297C30.8588 30.7252 30.8531 30.3858 30.8417 29.7119L30.8343 29.2724C30.8332 29.2081 30.8331 29.1761 30.8336 29.1445C30.8383 28.8247 30.9195 28.5104 31.0706 28.2286C31.0856 28.2007 31.1018 28.1726 31.1338 28.1171C31.166 28.0615 31.1827 28.0337 31.1994 28.0068C31.3681 27.7349 31.5995 27.5074 31.8744 27.3435C31.9012 27.3275 31.9289 27.3122 31.9838 27.2818L31.9857 27.2809L32.3472 27.0805C32.9488 26.7472 33.2501 26.5801 33.4689 26.3427C33.6625 26.1327 33.8085 25.8839 33.8978 25.6126C33.9981 25.3077 33.9973 24.9658 33.9958 24.2861L33.9945 23.7119C33.9929 23.0287 33.9921 22.6874 33.891 22.3828C33.8015 22.1133 33.6555 21.8656 33.463 21.6568C33.2457 21.4211 32.9475 21.2553 32.3517 20.9238L32.3499 20.9229Z" stroke="#202020" stroke-width="2" stroke-linecap="round" stroke-linejoin="round"/>
<path d="M20.0003 24C20.0003 26.2091 21.7912 28 24.0003 28C26.2095 28 28.0003 26.2091 28.0003 24C28.0003 21.7908 26.2095 20 24.0003 20C21.7912 20 20.0003 21.7908 20.0003 24Z" stroke="#202020" stroke-width="2" stroke-linecap="round" stroke-linejoin="round"/>
</svg>
