<svg width="200" height="200" viewBox="0 0 200 200" fill="none" xmlns="http://www.w3.org/2000/svg">
<rect width="200" height="200" rx="100" fill="#DEE3E5"/>
<circle cx="99.5" cy="80.5" r="30.5" fill="#F8FAFB"/>
<mask id="path-3-inside-1_42_379" fill="white">
<path d="M105.875 122C136.562 122 162.214 143.556 168.517 172.352C150.618 189.198 126.512 199.522 99.9922 199.522C73.479 199.522 49.3764 189.204 31.4795 172.364C37.7772 143.562 63.4333 122 94.125 122H105.875Z"/>
</mask>
<path d="M105.875 122C136.562 122 162.214 143.556 168.517 172.352C150.618 189.198 126.512 199.522 99.9922 199.522C73.479 199.522 49.3764 189.204 31.4795 172.364C37.7772 143.562 63.4333 122 94.125 122H105.875Z" fill="#F8FAFB"/>
<path d="M168.517 172.352L171.944 175.992L174.007 174.05L173.401 171.283L168.517 172.352ZM99.9922 199.522V204.522V204.522V199.522ZM31.4795 172.364L26.5949 171.296L25.9897 174.064L28.0531 176.006L31.4795 172.364ZM105.875 122V127C134.163 127 157.821 146.871 163.632 173.421L168.517 172.352L173.401 171.283C166.607 140.24 138.961 117 105.875 117V122ZM168.517 172.352L165.09 168.711C148.082 184.719 125.188 194.522 99.9922 194.522V199.522V204.522C127.835 204.522 153.155 193.677 171.944 175.992L168.517 172.352ZM99.9922 199.522V194.522C74.8024 194.522 51.9123 184.725 34.9058 168.723L31.4795 172.364L28.0531 176.006C46.8405 193.683 72.1557 204.522 99.9922 204.522V199.522ZM31.4795 172.364L36.3641 173.432C42.1705 146.877 65.8325 127 94.125 127V122V117C61.0341 117 33.384 140.247 26.5949 171.296L31.4795 172.364ZM94.125 122V127H105.875V122V117H94.125V122Z" fill="#DEE3E5" mask="url(#path-3-inside-1_42_379)"/>
</svg>
