<svg width="20" height="20" viewBox="0 0 20 20" fill="none" xmlns="http://www.w3.org/2000/svg">
<path d="M11.5068 2.29785L14.0879 0.990234L14.6748 3.82324L17.5674 3.76465L16.8662 6.57227L19.498 7.77441L17.6494 10L19.498 12.2256L16.8662 13.4277L17.5674 16.2354L14.6748 16.1768L14.0879 19.0098L11.5068 17.7021L9.74902 20L7.99121 17.7021L5.41016 19.0098L4.82324 16.1768L1.93066 16.2354L2.63184 13.4277L0 12.2256L1.84863 10L0 7.77441L2.63184 6.57227L1.93066 3.76465L4.82324 3.82324L5.41016 0.990234L7.99121 2.29785L9.74902 0L11.5068 2.29785ZM13.2793 7.46973C12.9864 7.17683 12.5116 7.17683 12.2188 7.46973L8.74902 10.9395L7.2793 9.46973C6.9864 9.17683 6.51164 9.17683 6.21875 9.46973C5.92586 9.76262 5.92586 10.2374 6.21875 10.5303L8.21875 12.5303C8.51164 12.8232 8.9864 12.8232 9.2793 12.5303L13.2793 8.53027C13.5722 8.23738 13.5722 7.76262 13.2793 7.46973Z" fill="white"/>
</svg>
