<svg width="362" height="52" viewBox="0 0 362 52" fill="none" xmlns="http://www.w3.org/2000/svg">
<rect width="362" height="52" rx="14" fill="url(#paint0_linear_140_3594)"/>
<path d="M149.031 18.7656V24.1406H151.203V25.6094H149.031V32.8906H147.297V18.7656H149.031ZM140.188 19.9219V23.4531H143.516V19.9219H145.25V29.5781H138.469V19.9219H140.188ZM140.188 28.1562H143.516V24.8125H140.188V28.1562ZM164.703 29.8125V31.25H151.797V29.8125H157.359V27.5156H153.328V22.8906H161.453V21.1406H153.297V19.7344H163.172V24.2656H155.062V26.0938H163.5V27.5156H159.078V29.8125H164.703ZM181.578 18.7656V32.8906H179.922V25.6875H178.328V32.1719H176.734V19.0312H178.328V24.2969H179.922V18.7656H181.578ZM175.141 20.4375V21.8438H171.609V28.125C173.148 28.1094 174.414 28.0312 175.844 27.7656L175.969 29.1875C174.266 29.5312 172.781 29.5781 170.812 29.5938H169.859V20.4375H175.141ZM194.422 18.7656V24.5938H196.406V26.0469H194.422V32.8906H192.672V18.7656H194.422ZM183.078 28.9688C184.148 28.9688 185.391 28.9688 186.688 28.9375V27.6094C185.148 27.3516 184.141 26.3828 184.156 25.0625C184.141 23.4688 185.547 22.4062 187.578 22.4062C189.578 22.4062 191 23.4688 191.016 25.0625C191 26.3906 189.977 27.3594 188.438 27.6094V28.875C189.625 28.8125 190.812 28.7188 191.922 28.5625L192.031 29.8281C189 30.375 185.734 30.4062 183.328 30.4062L183.078 28.9688ZM191.766 20.3906V21.7656H183.344V20.3906H186.688V18.8281H188.438V20.3906H191.766ZM187.578 23.7344C186.5 23.75 185.797 24.2344 185.797 25.0625C185.797 25.875 186.5 26.3594 187.578 26.3438C188.641 26.3594 189.344 25.875 189.344 25.0625C189.344 24.2344 188.641 23.75 187.578 23.7344ZM208.141 18.7656V24.3906H210.312V25.8281H208.141V32.8906H206.422V18.7656H208.141ZM205.328 20.9375V22.3281H197V20.9375H200.344V18.9688H202.078V20.9375H205.328ZM201.219 23.25C203.25 23.25 204.766 24.625 204.766 26.5781C204.766 28.5312 203.25 29.8906 201.219 29.8906C199.156 29.8906 197.641 28.5312 197.656 26.5781C197.641 24.625 199.156 23.25 201.219 23.25ZM201.219 24.6719C200.109 24.6719 199.312 25.4219 199.312 26.5781C199.312 27.7344 200.109 28.4688 201.219 28.4531C202.297 28.4688 203.094 27.7344 203.109 26.5781C203.094 25.4219 202.297 24.6719 201.219 24.6719ZM222.703 18.7656V32.8906H220.953V18.7656H222.703ZM218.484 20.2656C218.484 24.4688 216.859 28.0469 211.906 30.3906L211 29C214.695 27.2422 216.414 24.8516 216.719 21.6406H211.719V20.2656H218.484Z" fill="white"/>
<defs>
<linearGradient id="paint0_linear_140_3594" x1="-26.9814" y1="2.76021e-07" x2="526.874" y2="209.14" gradientUnits="userSpaceOnUse">
<stop stop-color="#FC3367"/>
<stop offset="0.439695" stop-color="#FE7E71"/>
<stop offset="0.724443" stop-color="#FFCA7A"/>
<stop offset="1" stop-color="white"/>
</linearGradient>
</defs>
</svg>
