<svg width="28" height="28" viewBox="0 0 28 28" fill="none" xmlns="http://www.w3.org/2000/svg">
<path fill-rule="evenodd" clip-rule="evenodd" d="M25.6666 13.9999C25.6666 20.4429 20.443 25.6666 14 25.6666C7.55697 25.6666 2.33331 20.4429 2.33331 13.9999C2.33331 7.55691 7.55697 2.33325 14 2.33325C20.443 2.33325 25.6666 7.55691 25.6666 13.9999Z" fill="#DEE3E5"/>
<path fill-rule="evenodd" clip-rule="evenodd" d="M19.5645 10.5804C19.9818 10.9978 19.9818 11.6744 19.5645 12.0917L13.5972 18.059C13.3968 18.2594 13.125 18.372 12.8416 18.372C12.5582 18.372 12.2863 18.2594 12.0859 18.059L8.43545 14.4085C8.01812 13.9912 8.01812 13.3146 8.43545 12.8972C8.85278 12.4799 9.52941 12.4799 9.94674 12.8972L12.8416 15.7921L18.0532 10.5804C18.4706 10.1631 19.1472 10.1631 19.5645 10.5804Z" fill="white"/>
</svg>
