<svg width="20" height="20" viewBox="0 0 20 20" fill="none" xmlns="http://www.w3.org/2000/svg">
<path fill-rule="evenodd" clip-rule="evenodd" d="M20 10C20 15.5226 15.5226 20 10 20C4.47742 20 0 15.5226 0 10C0 4.47742 4.47742 0 10 0C15.5226 0 20 4.47742 20 10Z" fill="#FC3367"/>
<path fill-rule="evenodd" clip-rule="evenodd" d="M14.7696 7.06901C15.1273 7.42672 15.1273 8.00668 14.7696 8.36439L9.65477 13.4792C9.483 13.651 9.25001 13.7475 9.00708 13.7475C8.76415 13.7475 8.53117 13.651 8.35939 13.4792L5.2304 10.3502C4.87269 9.99252 4.87269 9.41256 5.2304 9.05485C5.58812 8.69713 6.16808 8.69713 6.52579 9.05485L9.00708 11.5361L13.4742 7.06901C13.8319 6.71129 14.4119 6.71129 14.7696 7.06901Z" fill="white"/>
</svg>
