<svg width="28" height="28" viewBox="0 0 28 28" fill="none" xmlns="http://www.w3.org/2000/svg">
<g clip-path="url(#clip0_345_664)">
<rect width="28" height="28" fill="white"/>
<path d="M14 4.66666C19.7991 4.66666 24.501 8.45891 24.501 13.1364C24.5007 17.8137 19.799 21.6051 14 21.6051C12.8962 21.6051 11.8328 21.4654 10.8334 21.2104C10.7177 21.1809 10.5948 21.1987 10.4934 21.2618L7.27507 23.2684C6.95126 23.4703 6.54465 23.1812 6.62902 22.809L7.27234 19.9714C7.3118 19.7974 7.23894 19.6177 7.09309 19.5149C4.89116 17.9625 3.50015 15.6805 3.5 13.1364C3.5 8.45898 8.20099 4.66678 14 4.66666Z" fill="#A6AFB6"/>
</g>
<defs>
<clipPath id="clip0_345_664">
<rect width="28" height="28" fill="white"/>
</clipPath>
</defs>
</svg>
