<svg width="28" height="28" viewBox="0 0 28 28" fill="none" xmlns="http://www.w3.org/2000/svg">
<rect width="28" height="28" fill="white"/>
<path d="M9.6 4.66667C6.17 4.66667 3.5 7.50675 3.5 10.9745C3.5 12.6165 4.09356 13.999 5.0208 15.2824C5.93088 16.542 7.19691 17.7511 8.58759 19.0441L8.59185 19.048L12.3314 22.4802C12.5043 22.6389 12.6701 22.7911 12.8208 22.9091C12.9863 23.0386 13.188 23.1717 13.4444 23.2502C13.8065 23.3611 14.1935 23.3611 14.5556 23.2502C14.812 23.1717 15.0137 23.0386 15.1792 22.9091C15.3299 22.7911 15.4957 22.6389 15.6686 22.4802L19.4082 19.048L19.4124 19.0441C20.8031 17.7511 22.0691 16.542 22.9792 15.2824C23.9064 13.999 24.5 12.6165 24.5 10.9745C24.5 7.50675 21.83 4.66667 18.4 4.66667C16.6575 4.66667 15.1026 5.40472 14 6.58779C12.8974 5.40472 11.3425 4.66667 9.6 4.66667Z" fill="#A6AFB6"/>
</svg>
