<svg width="28" height="28" viewBox="0 0 28 28" fill="none" xmlns="http://www.w3.org/2000/svg">
<g clip-path="url(#clip0_345_680)">
<rect width="28" height="28" fill="white"/>
<path d="M13.9973 15.5729C16.7989 15.5729 19.6461 16.4099 21.6271 18.277C23.3014 19.855 24.2414 21.3245 24.4924 23.3356C24.5721 23.9749 24.0389 24.4996 23.3947 24.4997H4.60077C3.95644 24.4997 3.42278 23.9742 3.50897 23.3356C3.76956 21.4056 4.7084 19.8414 6.36835 18.277C8.34934 16.4102 11.1958 15.573 13.9973 15.5729ZM13.9973 4.66666C16.5902 4.66673 18.6926 6.75637 18.6926 9.33366C18.6924 11.9108 16.59 13.9996 13.9973 13.9997C11.4044 13.9997 9.30212 11.9108 9.30194 9.33366C9.30194 6.75633 11.4043 4.66666 13.9973 4.66666Z" fill="#A6AFB6"/>
</g>
<defs>
<clipPath id="clip0_345_680">
<rect width="28" height="28" fill="white"/>
</clipPath>
</defs>
</svg>
