<svg width="14" height="14" viewBox="0 0 14 14" fill="none" xmlns="http://www.w3.org/2000/svg">
<path d="M0.292846 1.70703C-0.097639 1.31655 -0.0975608 0.683502 0.292846 0.292969C0.683378 -0.0974636 1.31641 -0.0975247 1.70691 0.292969L6.81628 5.40234L11.9257 0.292968C12.3162 -0.0974641 12.9502 -0.0975252 13.3407 0.292968C13.7307 0.683455 13.7308 1.31665 13.3407 1.70703L8.23035 6.81641L13.3407 11.9258C13.7308 12.3162 13.7307 12.9494 13.3407 13.3398C12.9502 13.7303 12.3162 13.7303 11.9257 13.3398L6.81628 8.23047L1.70691 13.3398C1.31642 13.7303 0.68338 13.7303 0.292847 13.3398C-0.0975603 12.9493 -0.0976385 12.3163 0.292847 11.9258L5.40222 6.81641L0.292846 1.70703Z" fill="#A6AFB6"/>
</svg>
