<svg width="28" height="28" viewBox="0 0 28 28" fill="none" xmlns="http://www.w3.org/2000/svg">
<rect width="28" height="28" fill="white"/>
<path d="M13.3649 3.79283C13.7882 3.40271 14.2121 3.40271 14.6354 3.79283L22.4421 10.8885C23.0096 11.4045 23.3337 12.1362 23.3337 12.9032V20.8094C23.3335 21.6045 23.122 22.2243 22.6989 22.6678C22.2827 23.1113 21.704 23.3328 20.9635 23.3329H17.4029C17.027 23.3329 16.7223 23.0282 16.7223 22.6523V16.782C16.7223 16.4061 16.4176 16.1014 16.0418 16.1014H11.9585C11.5827 16.1014 11.278 16.4061 11.278 16.782V22.6523C11.278 23.0282 10.9733 23.3329 10.5974 23.3329H7.04752C6.29988 23.3328 5.71394 23.1114 5.29069 22.6678C4.87468 22.2243 4.66681 21.6045 4.66666 20.8094V12.9032C4.66666 12.1362 4.9907 11.4045 5.55827 10.8885L13.3649 3.79283Z" fill="#202020"/>
</svg>
