<svg width="24" height="24" viewBox="0 0 24 24" fill="none" xmlns="http://www.w3.org/2000/svg">
<path d="M10.25 5.24975C10.25 6.21625 11.0335 6.99975 12 6.99975C12.9665 6.99975 13.75 6.21625 13.75 5.24975C13.75 4.28326 12.9665 3.49976 12 3.49976C11.0335 3.49976 10.25 4.28326 10.25 5.24975Z" fill="#202020"/>
<path d="M12 13.7497C11.0335 13.7497 10.25 12.9662 10.25 11.9997C10.25 11.0332 11.0335 10.2497 12 10.2497C12.9665 10.2497 13.75 11.0332 13.75 11.9997C13.75 12.9662 12.9665 13.7497 12 13.7497Z" fill="#202020"/>
<path d="M12 20.4997C11.0335 20.4997 10.25 19.7162 10.25 18.7497C10.25 17.7832 11.0335 16.9997 12 16.9997C12.9665 16.9997 13.75 17.7832 13.75 18.7497C13.75 19.7162 12.9665 20.4997 12 20.4997Z" fill="#202020"/>
</svg>
