<svg width="39" height="38" viewBox="0 0 39 38" fill="none" xmlns="http://www.w3.org/2000/svg">
<path d="M37.3992 0.778453C37.3856 0.767107 37.3674 0.75803 37.3583 0.746684C36.7457 0.143069 35.897 -0.0952008 35.1118 0.0341454L26.0303 0.152145C24.5939 0.172569 23.4457 1.3503 23.4638 2.78672C23.482 4.21861 24.569 5.28742 26.0962 5.35095L29.1369 5.31238L24.687 9.76234C22.041 7.8108 18.855 6.75561 15.5034 6.75561C11.3598 6.75561 7.4635 8.36903 4.53392 11.2986C-1.51131 17.3461 -1.51131 27.1878 4.53392 33.2353C7.4635 36.1648 11.3598 37.7783 15.5034 37.7783C19.6447 37.7783 23.5433 36.1648 26.4728 33.2353C31.8282 27.8753 32.4477 19.5405 28.3132 13.502L32.9855 8.8433V12.2449C32.9855 13.6813 34.1519 14.8431 35.5861 14.8431C37.027 14.8431 38.1866 13.679 38.1866 12.2449V2.62334C38.1866 1.93349 37.8939 1.26634 37.3992 0.778453ZM22.7967 29.5591C18.9027 33.4531 12.1109 33.4531 8.21235 29.5591C4.19127 25.5403 4.19127 18.9958 8.21235 14.9748C10.1616 13.0278 12.7508 11.9544 15.5057 11.9544C18.2628 11.9544 20.8474 13.0278 22.8012 14.9748C26.82 18.9936 26.82 25.5403 22.7967 29.5591Z" fill="#202020"/>
</svg>
