<?xml version="1.0" encoding="UTF-8"?>
<svg id="Layer_1" xmlns="http://www.w3.org/2000/svg" xmlns:xlink="http://www.w3.org/1999/xlink" version="1.1" viewBox="0 0 68 68">
  <!-- Generator: Adobe Illustrator 30.3.0, SVG Export Plug-In . SVG Version: 2.1.1 Build 104)  -->
  <defs>
    <style>
      .st0 {
        fill: url(#linear-gradient);
      }

      .st1 {
        fill: #fff;
      }
    </style>
    <linearGradient id="linear-gradient" x1="58.52" y1="-42.47" x2="25.03" y2="50.91" gradientTransform="translate(0 59.89) scale(1 -1)" gradientUnits="userSpaceOnUse">
      <stop offset="0" stop-color="#fff"/>
      <stop offset=".28" stop-color="#ffca7a"/>
      <stop offset=".56" stop-color="#fe7e71"/>
      <stop offset="1" stop-color="#fc3367"/>
    </linearGradient>
  </defs>
  <circle class="st0" cx="34" cy="34" r="34"/>
  <path class="st1" d="M43.46,31.91c.75,0,1.36.61,1.36,1.36,0,5.57-4.17,10.15-9.55,10.83v2.78h4.75c.75,0,1.36.61,1.36,1.36s-.61,1.36-1.36,1.36h-12.23c-.75,0-1.36-.61-1.36-1.36s.61-1.36,1.36-1.36h4.75v-2.78c-5.38-.67-9.55-5.26-9.55-10.83,0-.75.61-1.36,1.36-1.36s1.36.61,1.36,1.36c0,4.52,3.66,8.19,8.19,8.19,4.52,0,8.19-3.66,8.19-8.19,0-.75.61-1.36,1.36-1.36ZM33.92,21c3.01,0,5.46,2.44,5.46,5.46v6.82c0,3.01-2.44,5.46-5.46,5.46-3.01,0-5.46-2.44-5.46-5.46v-6.82c0-3.01,2.44-5.46,5.46-5.46ZM33.92,23.73c-1.51,0-2.73,1.22-2.73,2.73v6.82c0,1.51,1.22,2.73,2.73,2.73,1.51,0,2.73-1.22,2.73-2.73v-6.82c0-1.51-1.22-2.73-2.73-2.73Z"/>
</svg>