<svg width="28" height="28" viewBox="0 0 28 28" fill="none" xmlns="http://www.w3.org/2000/svg">
<g clip-path="url(#clip0_345_1279)">
<rect width="28" height="28" fill="white"/>
<path d="M13.9973 15.5729C16.7989 15.5729 19.6461 16.4099 21.6271 18.277C23.3014 19.8549 24.2414 21.3245 24.4924 23.3356C24.5721 23.9748 24.0389 24.4995 23.3947 24.4996H4.60077C3.95644 24.4996 3.42278 23.9741 3.50897 23.3356C3.76956 21.4056 4.7084 19.8414 6.36835 18.277C8.34934 16.4101 11.1958 15.5729 13.9973 15.5729ZM13.9973 4.66663C16.5902 4.66669 18.6926 6.75633 18.6926 9.33362C18.6924 11.9108 16.59 13.9996 13.9973 13.9996C11.4044 13.9996 9.30212 11.9108 9.30194 9.33362C9.30194 6.75629 11.4043 4.66663 13.9973 4.66663Z" fill="#202020"/>
</g>
<defs>
<clipPath id="clip0_345_1279">
<rect width="28" height="28" fill="white"/>
</clipPath>
</defs>
</svg>
