<svg width="29" height="29" viewBox="0 0 29 29" fill="none" xmlns="http://www.w3.org/2000/svg">
<path d="M14.5 22.9583V26.5833" stroke="#202020" stroke-width="2" stroke-linecap="round" stroke-linejoin="round"/>
<path d="M22.9584 12.0833V14.4999C22.9584 16.7432 22.0673 18.8946 20.481 20.4809C18.8948 22.0671 16.7434 22.9583 14.5001 22.9583C12.2568 22.9583 10.1054 22.0671 8.51914 20.4809C6.93289 18.8946 6.04175 16.7432 6.04175 14.4999V12.0833" stroke="#202020" stroke-width="2" stroke-linecap="round" stroke-linejoin="round"/>
<path d="M18.125 6.04175C18.125 4.03972 16.502 2.41675 14.5 2.41675C12.498 2.41675 10.875 4.03972 10.875 6.04175V14.5001C10.875 16.5021 12.498 18.1251 14.5 18.1251C16.502 18.1251 18.125 16.5021 18.125 14.5001V6.04175Z" stroke="#202020" stroke-width="2" stroke-linecap="round" stroke-linejoin="round"/>
</svg>
