<svg width="27" height="27" viewBox="0 0 27 27" fill="none" xmlns="http://www.w3.org/2000/svg">
<path d="M15.7466 4.5C16.1525 4.49999 16.5509 4.60979 16.8994 4.81774C17.248 5.0257 17.5338 5.32407 17.7266 5.68125L18.2734 6.69375C18.4662 7.05093 18.752 7.3493 19.1006 7.55726C19.4491 7.76521 19.8475 7.87501 20.2534 7.875H22.5C23.0967 7.875 23.669 8.11205 24.091 8.53401C24.5129 8.95597 24.75 9.52826 24.75 10.125V20.25C24.75 20.8467 24.5129 21.419 24.091 21.841C23.669 22.2629 23.0967 22.5 22.5 22.5H4.5C3.90326 22.5 3.33097 22.2629 2.90901 21.841C2.48705 21.419 2.25 20.8467 2.25 20.25V10.125C2.25 9.52826 2.48705 8.95597 2.90901 8.53401C3.33097 8.11205 3.90326 7.875 4.5 7.875H6.74663C7.1521 7.87502 7.55004 7.76547 7.89838 7.55794C8.24671 7.3504 8.53249 7.05259 8.7255 6.696L9.27562 5.679C9.46863 5.32241 9.75441 5.0246 10.1027 4.81706C10.4511 4.60953 10.849 4.49998 11.2545 4.5H15.7466Z" stroke="#202020" stroke-width="2.25" stroke-linecap="round" stroke-linejoin="round"/>
<path d="M13.5 18C15.364 18 16.875 16.489 16.875 14.625C16.875 12.761 15.364 11.25 13.5 11.25C11.636 11.25 10.125 12.761 10.125 14.625C10.125 16.489 11.636 18 13.5 18Z" stroke="#202020" stroke-width="2.25" stroke-linecap="round" stroke-linejoin="round"/>
</svg>
