<svg width="29" height="29" viewBox="0 0 29 29" fill="none" xmlns="http://www.w3.org/2000/svg">
<path d="M12.4072 25.375C12.6193 25.7424 12.9244 26.0474 13.2918 26.2595C13.6591 26.4716 14.0759 26.5832 14.5001 26.5832C14.9243 26.5832 15.341 26.4716 15.7083 26.2595C16.0757 26.0474 16.3808 25.7424 16.5929 25.375" stroke="#202020" stroke-width="2" stroke-linecap="round" stroke-linejoin="round"/>
<path d="M3.94168 18.519C3.78383 18.692 3.67965 18.9072 3.64184 19.1383C3.60402 19.3694 3.63418 19.6066 3.72866 19.8209C3.82313 20.0352 3.97785 20.2174 4.17399 20.3454C4.37012 20.4733 4.59923 20.5416 4.83343 20.5417H24.1668C24.4009 20.5418 24.6301 20.4739 24.8263 20.3461C25.0226 20.2184 25.1775 20.0364 25.2722 19.8222C25.367 19.608 25.3974 19.371 25.3599 19.1398C25.3224 18.9087 25.2185 18.6934 25.0609 18.5202C23.4538 16.8636 21.7501 15.103 21.7501 9.66675C21.7501 7.74393 20.9863 5.89986 19.6266 4.54022C18.267 3.18059 16.4229 2.41675 14.5001 2.41675C12.5773 2.41675 10.7332 3.18059 9.37357 4.54022C8.01393 5.89986 7.25009 7.74393 7.25009 9.66675C7.25009 15.103 5.54514 16.8636 3.94168 18.519Z" stroke="#202020" stroke-width="2" stroke-linecap="round" stroke-linejoin="round"/>
</svg>
