<svg width="362" height="88" viewBox="0 0 362 88" fill="none" xmlns="http://www.w3.org/2000/svg">
<rect x="0.5" y="0.5" width="361" height="87" rx="13.5" fill="url(#paint0_linear_4045_8861)"/>
<rect x="0.5" y="0.5" width="361" height="87" rx="13.5" stroke="#FF88A6"/>
<path d="M30.8945 30.2246V31.291H28.9941V37.6484H27.6953V25.4121H28.9941V30.2246H30.8945ZM21.2012 26.6016V33.4922C22.9102 33.4922 24.6943 33.3486 26.6426 32.9453L26.793 34.0391C24.7012 34.4629 22.7598 34.5723 20.9277 34.5723H19.916V26.6016H21.2012ZM35.2285 26.1914C37.1152 26.1914 38.5234 27.3809 38.5234 29.1035C38.5234 30.6211 37.4297 31.7217 35.8848 31.9609V33.9023C36.9717 33.8545 38.0586 33.7725 39.0703 33.6426L39.166 34.6133C36.582 35.0645 33.7246 35.0781 31.6055 35.0645L31.4004 33.998C32.3506 33.9912 33.4443 33.9844 34.5859 33.957V31.9609C33 31.7354 31.9199 30.6279 31.9336 29.1035C31.9199 27.3809 33.3008 26.1914 35.2285 26.1914ZM35.2285 27.2852C34.0527 27.2988 33.1914 28.0098 33.1914 29.1035C33.1914 30.1973 34.0527 30.9219 35.2285 30.9082C36.3906 30.9219 37.2383 30.1973 37.252 29.1035C37.2383 28.0098 36.3906 27.2988 35.2285 27.2852ZM41.1074 25.4121V30.3887H42.9941V31.4824H41.1074V37.6621H39.8086V25.4121H41.1074ZM53.2891 26.5469V27.627H48.9824V33.6016C51.0332 33.5947 52.4482 33.5195 54.0547 33.2051L54.2051 34.2715C52.4414 34.5996 50.9512 34.6816 48.6406 34.6816H47.6699V26.5469H53.2891ZM57.2949 25.4121V37.6895H55.9961V30.8672H52.5918V29.7871H55.9961V25.4121H57.2949ZM66.8516 27.2578C66.8379 28.666 67.9727 29.9922 69.8594 30.5254L69.2441 31.5371C67.8291 31.1338 66.7764 30.252 66.2227 29.1309C65.6826 30.4092 64.5889 31.3867 63.0781 31.8379L62.4492 30.8262C64.3633 30.252 65.5391 28.8164 65.5391 27.2715V27.1074H62.8594V26.0684H69.4902V27.1074H66.8516V27.2578ZM72.2109 25.4121V27.9961H73.9883V29.0625H72.2109V31.7148H70.9121V25.4121H72.2109ZM72.2109 32.248V35.2969H65.5938V36.5273H72.6348V37.5391H64.3223V34.3535H70.9258V33.2598H64.2949V32.248H72.2109ZM80.8926 26.2324V31.5098H75.1641V26.2324H80.8926ZM76.4355 27.2715V30.4707H79.6211V27.2715H76.4355ZM84.3105 25.4121V28.2559H86.0879V29.3359H84.3105V32.3574H83.0117V25.4121H84.3105ZM84.502 33.041V34.0801H81.1523C81.3301 35.2422 82.9229 36.3154 85.0078 36.623L84.5293 37.6211C82.6699 37.334 81.1387 36.4795 80.4277 35.3105C79.7305 36.4863 78.2061 37.334 76.3535 37.6074L75.875 36.6094C77.9736 36.3154 79.5322 35.2764 79.7441 34.0801H76.3672V33.041H84.502ZM96.6973 28.9941V30.0332H88.2617V25.8496H89.5469V28.9941H96.6973ZM97.9824 31.5781V32.6172H86.7715V31.5781H97.9824ZM96.7793 36.3086V37.375H88.166V33.7793H89.4648V36.3086H96.7793ZM106.555 28.5293C106.541 30.7031 107.799 32.918 109.631 33.8066L108.824 34.8457C107.491 34.1553 106.459 32.7812 105.926 31.1406C105.372 32.8906 104.299 34.3535 102.904 35.0781L102.098 34.0254C103.984 33.123 105.256 30.7715 105.256 28.5293V26.4375H106.555V28.5293ZM111.846 25.4121V30.293H113.814V31.4004H111.846V37.6621H110.547V25.4121H111.846ZM124.027 25.4258V28.4746H125.818V29.5684H124.027V32.7129H122.729V25.4258H124.027ZM124.027 33.2871V37.5117H116.18V33.2871H124.027ZM117.451 34.2988V36.459H122.77V34.2988H117.451ZM120.473 26.0684V29.5273H116.207V31.0586C118.333 31.0518 119.837 30.9902 121.621 30.6895L121.758 31.7285C119.857 32.0703 118.244 32.1387 115.893 32.1387H114.908V28.543H119.201V27.1074H114.895V26.0684H120.473ZM132.08 25.6172C134.842 25.6172 136.455 26.3555 136.455 27.7227C136.455 29.0898 134.842 29.8418 132.08 29.8418C129.318 29.8418 127.705 29.0898 127.705 27.7227C127.705 26.3555 129.318 25.6172 132.08 25.6172ZM132.08 26.5742C130.125 26.5742 129.045 26.998 129.059 27.7227C129.045 28.4746 130.125 28.8711 132.08 28.8711C134.035 28.8711 135.115 28.4746 135.115 27.7227C135.115 26.998 134.035 26.5742 132.08 26.5742ZM137.672 30.5938V31.6328H126.502V30.5938H137.672ZM136.264 32.5762V35.4473H129.127V36.541H136.605V37.5391H127.855V34.5039H134.979V33.5469H127.842V32.5762H136.264ZM146.312 27.9414C146.312 29.3359 147.42 30.6484 149.293 31.168L148.705 32.166C147.276 31.7695 146.23 30.9082 145.684 29.8008C145.144 31.0107 144.07 31.9541 142.621 32.3984L141.992 31.373C143.865 30.8398 145.027 29.4727 145.027 27.9414V27.8047H142.361V26.7656H145.027V25.3574H146.326V26.7656H148.979V27.8047H146.312V27.9414ZM151.645 25.4121V28.3516H153.422V29.4316H151.645V32.4805H150.346V25.4121H151.645ZM151.836 33.0957V34.1348H148.486C148.719 35.2764 150.291 36.3223 152.342 36.623L151.863 37.6211C150.004 37.334 148.473 36.4795 147.762 35.3105C147.058 36.4727 145.54 37.3135 143.688 37.6074L143.209 36.6094C145.267 36.3223 146.818 35.3105 147.064 34.1348H143.701V33.0957H151.836ZM159.697 25.6172C162.459 25.6172 164.072 26.3555 164.072 27.7227C164.072 29.0898 162.459 29.8418 159.697 29.8418C156.936 29.8418 155.322 29.0898 155.322 27.7227C155.322 26.3555 156.936 25.6172 159.697 25.6172ZM159.697 26.5742C157.742 26.5742 156.662 26.998 156.676 27.7227C156.662 28.4746 157.742 28.8711 159.697 28.8711C161.652 28.8711 162.732 28.4746 162.732 27.7227C162.732 26.998 161.652 26.5742 159.697 26.5742ZM165.289 30.5938V31.6328H154.119V30.5938H165.289ZM163.881 32.5762V35.4473H156.744V36.541H164.223V37.5391H155.473V34.5039H162.596V33.5469H155.459V32.5762H163.881ZM175.912 26.4922C175.898 28.1191 177.895 29.6504 180.301 29.9648L179.795 31.0312C177.792 30.71 176.028 29.6709 175.242 28.2285C174.436 29.6777 172.679 30.71 170.689 31.0312L170.17 29.9648C172.576 29.6504 174.545 28.1328 174.559 26.4922V25.8223H175.912V26.4922ZM180.807 32.2344V33.3008H175.83V37.6621H174.559V33.3008H169.637V32.2344H180.807ZM189.406 33.5059C189.406 34.5586 189.926 35.6729 191.033 36.3359C192.161 35.6182 192.715 34.4424 192.715 33.5059V32.918H193.986V33.5059C193.986 34.7773 194.82 36.0078 196.42 36.5273L195.777 37.4844C194.567 37.0674 193.747 36.2539 193.316 35.2422C192.927 36.2334 192.195 37.1289 191.074 37.5938C189.898 37.1494 189.153 36.2812 188.777 35.2832C188.333 36.2471 187.526 37.0605 186.371 37.4844L185.715 36.5273C187.287 35.9668 188.135 34.6953 188.148 33.5059V32.918H189.406V33.5059ZM195.312 25.4258V32.3984H194.014V25.4258H195.312ZM188.668 26.0957C190.541 26.0957 191.922 27.2852 191.922 28.9941C191.922 30.6895 190.541 31.8652 188.668 31.8652C186.795 31.8652 185.4 30.6895 185.4 28.9941C185.4 27.2852 186.795 26.0957 188.668 26.0957ZM188.668 27.2031C187.506 27.1895 186.672 27.9141 186.672 28.9941C186.672 30.0605 187.506 30.7852 188.668 30.7852C189.816 30.7852 190.65 30.0605 190.65 28.9941C190.65 27.9141 189.816 27.1895 188.668 27.2031ZM200.576 26.3281C202.237 26.3281 203.454 27.7363 203.652 30.0059H206.182V25.4121H207.467V37.6895H206.182V31.0586H203.666C203.522 33.4443 202.278 34.9277 200.576 34.9277C198.744 34.9277 197.459 33.2598 197.473 30.6211C197.459 27.9961 198.744 26.3281 200.576 26.3281ZM200.576 27.4902C199.469 27.4902 198.703 28.6934 198.703 30.6211C198.703 32.5625 199.469 33.7656 200.576 33.7656C201.684 33.7656 202.449 32.5625 202.449 30.6211C202.449 28.6934 201.684 27.4902 200.576 27.4902ZM220.564 35.0508V36.1309H209.354V35.0508H212.033V31.8516C211.028 31.2979 210.42 30.416 210.42 29.3223C210.42 27.3945 212.307 26.123 214.932 26.123C217.57 26.123 219.457 27.3945 219.457 29.3223C219.457 30.4023 218.869 31.2705 217.885 31.8242V35.0508H220.564ZM214.932 27.1621C213.004 27.1621 211.678 27.9961 211.678 29.3223C211.678 30.6348 213.004 31.4961 214.932 31.4961C216.846 31.4961 218.199 30.6348 218.199 29.3223C218.199 27.9961 216.846 27.1621 214.932 27.1621ZM213.318 35.0508H216.572V32.3164C216.073 32.4463 215.52 32.5078 214.932 32.5078C214.357 32.5078 213.811 32.4463 213.318 32.3301V35.0508ZM223.709 26.6016L223.586 33.6426H222.232L222.109 26.6016H223.709ZM222.916 36.5957C222.383 36.5957 221.932 36.1582 221.945 35.625C221.932 35.0918 222.383 34.6543 222.916 34.6543C223.436 34.6543 223.887 35.0918 223.887 35.625C223.887 36.1582 223.436 36.5957 222.916 36.5957Z" fill="#636970"/>
<path d="M32.8691 46.1211V62.1523H30.6016V46.1211H32.8691ZM24.1855 47.2461C26.5938 47.2461 28.3867 49.4609 28.3867 52.9414C28.3867 56.457 26.5938 58.6543 24.1855 58.6543C21.7246 58.6543 19.9316 56.457 19.9492 52.9414C19.9316 49.4609 21.7246 47.2461 24.1855 47.2461ZM24.1855 49.2676C22.9375 49.2676 22.1113 50.5684 22.1113 52.9414C22.1113 55.332 22.9375 56.6152 24.1855 56.6152C25.3984 56.6152 26.2246 55.332 26.2246 52.9414C26.2246 50.5684 25.3984 49.2676 24.1855 49.2676ZM40.8672 48.6348C40.8672 50.5684 41.9922 52.4316 44.5234 53.2227L43.3281 54.9629C41.6318 54.4004 40.4453 53.3105 39.7598 51.9043C39.0654 53.5215 37.8262 54.7871 35.998 55.4023L34.7852 53.6445C37.457 52.748 38.5996 50.6211 38.6172 48.4238V46.9648H40.8672V48.6348ZM47.7227 46.1211V49.8652H49.8848V51.7285H47.7227V55.6133H45.4727V46.1211H47.7227ZM42.4844 55.9297C45.7891 55.9297 47.8809 57.0723 47.8809 59.0234C47.8809 60.9922 45.7891 62.1172 42.4844 62.1172C39.1094 62.1172 37 60.9922 37 59.0234C37 57.0723 39.1094 55.9297 42.4844 55.9297ZM42.4844 57.6875C40.375 57.6875 39.2324 58.1445 39.25 59.0234C39.2324 59.9375 40.375 60.3594 42.4844 60.3594C44.5586 60.3594 45.666 59.9375 45.666 59.0234C45.666 58.1445 44.5586 57.6875 42.4844 57.6875ZM59.5176 47.5977V49.373H50.623V47.5977H54.0684V45.9805H56.3008V47.5977H59.5176ZM55.1582 49.9004C57.3555 49.918 58.9375 51.1309 58.9551 52.9062C58.9375 54.6992 57.3555 55.8945 55.1582 55.877C52.9434 55.8945 51.3965 54.6992 51.4141 52.9062C51.3965 51.1309 52.9434 49.918 55.1582 49.9004ZM55.1582 51.5703C54.1387 51.5703 53.4883 52.0449 53.5059 52.9062C53.4883 53.7676 54.1387 54.2246 55.1582 54.2246C56.1602 54.2246 56.8633 53.7676 56.8633 52.9062C56.8633 52.0449 56.1602 51.5703 55.1582 51.5703ZM64.0703 46.1211V56.3164H61.8379V54.6289H59.6582V52.8359H61.8379V51.4297H59.6934V49.6367H61.8379V46.1211H64.0703ZM58.6387 56.5098C62.0312 56.5098 64.1582 57.5469 64.1582 59.3223C64.1582 61.0625 62.0312 62.1172 58.6387 62.1172C55.2285 62.1172 53.1191 61.0625 53.1191 59.3223C53.1191 57.5469 55.2285 56.5098 58.6387 56.5098ZM58.6387 58.1973C56.5996 58.2148 55.4746 58.5664 55.4746 59.3223C55.4746 60.043 56.5996 60.4297 58.6387 60.4297C60.6426 60.4297 61.75 60.043 61.75 59.3223C61.75 58.5664 60.6426 58.2148 58.6387 58.1973ZM82.9844 46.1211V49.2148H85.1465V51.0605H82.9844V54.1191H80.7344V46.1211H82.9844ZM78.4492 46.877V53.5215H70.7676V46.877H78.4492ZM72.9824 48.6348V51.7461H76.2344V48.6348H72.9824ZM82.9844 54.752V59.1113H74.5996V60.1836H83.4414V61.9414H72.4023V57.4941H80.752V56.4746H72.3672V54.752H82.9844ZM98.4707 46.1211V52.3789H100.826V54.2246H98.4707V62.1172H96.2559V46.1211H98.4707ZM95.166 48.5117V50.3047H85.7617V48.5117H89.3828V46.3672H91.6328V48.5117H95.166ZM90.5078 51.2012C92.8457 51.2012 94.5859 52.7832 94.5859 55.0156C94.5859 57.248 92.8457 58.8301 90.5078 58.8301C88.1523 58.8301 86.4121 57.248 86.4121 55.0156C86.4121 52.7832 88.1523 51.2012 90.5078 51.2012ZM90.5078 53.0117C89.3828 53.0293 88.5566 53.7852 88.5566 55.0156C88.5566 56.2637 89.3828 57.002 90.5078 56.9844C91.6328 57.002 92.4414 56.2637 92.4414 55.0156C92.4414 53.7852 91.6328 53.0293 90.5078 53.0117ZM114.889 46.1211V62.1523H112.656V53.7148H110.072V51.8867H112.656V46.1211H114.889ZM109.176 47.457V53.4512H104.201V56.5801C106.407 56.5625 108.279 56.4834 110.336 56.123L110.512 57.9512C108.139 58.3379 105.959 58.4258 103.287 58.4258H101.969V51.6758H106.996V49.2676H101.934V47.457H109.176ZM133.732 46.1211V52.2559H136V54.1016H133.732V62.082H131.482V46.1211H133.732ZM129.461 47.7559C129.443 52.5371 127.58 56.6855 122.201 59.3223L120.936 57.5996C124.724 55.7012 126.754 53.1523 127.176 49.584H121.85V47.7559H129.461ZM150.115 46.1211V62.1172H147.848V46.1211H150.115ZM145.316 47.791C145.316 52.6426 143.611 56.668 137.898 59.375L136.721 57.582C140.852 55.6309 142.671 53.0996 143.031 49.5488H137.582V47.791H145.316Z" fill="#F22459"/>
<path d="M325.726 35.3918C325.841 35.1041 326.249 35.1041 326.364 35.3918L326.998 36.9813C327.036 37.0741 327.111 37.1461 327.206 37.1785L328.845 37.7403C329.154 37.8463 329.154 38.2835 328.845 38.3894L327.206 38.9512C327.111 38.9836 327.036 39.0557 326.998 39.1485L326.364 40.7379C326.249 41.0257 325.841 41.0257 325.726 40.7379L325.091 39.1485C325.054 39.0557 324.979 38.9836 324.884 38.9512L323.245 38.3894C322.936 38.2835 322.936 37.8463 323.245 37.7403L324.884 37.1785C324.979 37.1461 325.054 37.0741 325.091 36.9813L325.726 35.3918Z" fill="white"/>
<path d="M272.134 32.1687C272.249 31.8809 272.657 31.8809 272.772 32.1687L273.407 33.7581C273.444 33.8509 273.519 33.923 273.614 33.9554L275.253 34.5172C275.562 34.6231 275.562 35.0603 275.253 35.1663L273.614 35.7281C273.519 35.7605 273.444 35.8325 273.407 35.9253L272.772 37.5148C272.657 37.8025 272.249 37.8025 272.134 37.5148L271.499 35.9253C271.462 35.8325 271.387 35.7605 271.292 35.7281L269.653 35.1663C269.344 35.0603 269.344 34.6231 269.653 34.5172L271.292 33.9554C271.387 33.923 271.462 33.8509 271.499 33.7581L272.134 32.1687Z" fill="white"/>
<path d="M329.473 25.4895C329.588 25.2017 329.995 25.2017 330.11 25.4895L330.38 26.1639C330.417 26.2567 330.492 26.3287 330.587 26.3611L331.238 26.5843C331.547 26.6903 331.547 27.1275 331.238 27.2334L330.587 27.4566C330.492 27.489 330.417 27.561 330.38 27.6539L330.11 28.3282C329.995 28.616 329.588 28.616 329.473 28.3282L329.204 27.6539C329.167 27.561 329.091 27.489 328.996 27.4566L328.345 27.2334C328.036 27.1275 328.036 26.6903 328.345 26.5843L328.996 26.3611C329.091 26.3287 329.167 26.2567 329.204 26.1639L329.473 25.4895Z" fill="white"/>
<path d="M264.791 40.3635C264.906 40.0757 265.313 40.0757 265.428 40.3635L265.698 41.0379C265.735 41.1307 265.811 41.2027 265.905 41.2352L266.556 41.4583C266.865 41.5643 266.865 42.0015 266.556 42.1074L265.905 42.3306C265.811 42.363 265.735 42.4351 265.698 42.5279L265.428 43.2023C265.313 43.49 264.906 43.49 264.791 43.2023L264.522 42.5279C264.485 42.4351 264.409 42.363 264.314 42.3306L263.663 42.1074C263.354 42.0015 263.354 41.5643 263.663 41.4583L264.314 41.2352C264.409 41.2027 264.485 41.1307 264.522 41.0379L264.791 40.3635Z" fill="white"/>
<path d="M262.398 23.5202C262.513 23.2325 262.92 23.2325 263.035 23.5202L263.304 24.1946C263.342 24.2874 263.417 24.3595 263.512 24.3919L264.163 24.6151C264.472 24.721 264.472 25.1582 264.163 25.2642L263.512 25.4873C263.417 25.5198 263.342 25.5918 263.304 25.6846L263.035 26.359C262.92 26.6467 262.513 26.6467 262.398 26.359L262.128 25.6846C262.091 25.5918 262.016 25.5198 261.921 25.4873L261.27 25.2642C260.961 25.1582 260.961 24.721 261.27 24.6151L261.921 24.3919C262.016 24.3595 262.091 24.2874 262.128 24.1946L262.398 23.5202Z" fill="white"/>
<mask id="mask0_4045_8861" style="mask-type:alpha" maskUnits="userSpaceOnUse" x="263" y="2" width="75" height="85">
<rect x="263.5" y="2.5" width="74" height="84" rx="13.5" fill="url(#paint1_linear_4045_8861)"/>
<rect x="263.5" y="2.5" width="74" height="84" rx="13.5" stroke="#FF88A6"/>
</mask>
<g mask="url(#mask0_4045_8861)">
<path d="M324.132 73.1105C327.121 69.3738 328.351 63.8293 328.317 58.5684C328.282 53.3075 326.845 48.151 324.154 43.6301C321.463 39.1093 317.615 35.3876 313.008 32.8484C308.4 30.3093 303.199 29.0444 297.939 29.1843C292.68 29.3241 287.553 30.8636 283.087 33.644C278.621 36.4245 274.977 40.3454 272.53 45.0028C270.083 49.6603 268.922 54.8858 269.167 60.1412C269.411 65.3966 272.351 72.5685 275.643 74.7013L298.726 58.7651L324.132 73.1105Z" fill="url(#paint2_linear_4045_8861)"/>
<path d="M299.688 35.3765C301.333 37.3766 301.105 40.3151 299.359 42.1991C297.937 43.7333 295.011 44.1992 293.367 42.1991C291.722 40.199 291.804 37.0504 293.55 35.1664C295.296 33.2824 298.044 33.3765 299.688 35.3765Z" fill="#FFFEFE"/>
<path d="M304.272 35.3764C305.916 37.3765 305.834 40.5252 304.089 42.4092C302.343 44.2932 299.778 43.9312 298.134 41.9311C296.489 39.931 296.388 37.0502 298.134 35.1662C299.879 33.2822 302.628 33.3763 304.272 35.3764Z" fill="#FFFEFE"/>
<path d="M309.737 28.142C309.737 34.2231 306.468 41.2172 298.726 41.2172C290.984 41.2172 287.715 34.2231 287.715 28.142C287.715 22.061 292.645 17.1313 298.726 17.1313C304.807 17.1313 309.737 22.061 309.737 28.142Z" fill="#FFC9C9"/>
<path d="M291.156 32.6936C291.156 34.2573 290.339 36.0558 288.403 36.0558C286.468 36.0558 285.651 34.2573 285.651 32.6936C285.651 31.1299 286.883 29.8623 288.403 29.8623C289.924 29.8623 291.156 31.1299 291.156 32.6936Z" fill="#FFC9C9"/>
<path d="M299.784 29.6963C304.786 29.6963 309.691 30.9651 314.049 33.3633C312.724 38.5672 308.007 42.416 302.39 42.416C296.029 42.4159 290.822 37.4793 290.389 31.2285C293.402 30.2199 296.573 29.6963 299.784 29.6963Z" fill="url(#paint3_linear_4045_8861)" fill-opacity="0.5" style="mix-blend-mode:darken"/>
<path d="M311.801 32.6936C311.801 34.2573 310.984 36.0558 309.048 36.0558C307.113 36.0558 306.296 34.2573 306.296 32.6936C306.296 31.1299 307.528 29.8623 309.048 29.8623C310.569 29.8623 311.801 31.1299 311.801 32.6936Z" fill="#FFC9C9"/>
<path d="M298.814 25.0453C298.814 29.0359 301.567 32.271 304.963 32.271C306.457 32.271 307.998 32.3082 309.063 31.2674C309.885 30.4646 311.113 27.2806 311.113 25.0453C311.113 19.2246 307.526 13.0024 298.301 13.0024C298.301 13.0024 297.447 19.0239 298.814 25.0453Z" fill="url(#paint4_linear_4045_8861)"/>
<circle cx="279.629" cy="69.0391" r="6.94734" fill="#FF94C1"/>
<circle cx="319.159" cy="68.1788" r="6.94734" fill="#FF94C1"/>
<ellipse cx="298.726" cy="32.7875" rx="9.63436" ry="8.43006" fill="url(#paint5_linear_4045_8861)"/>
<path d="M298.532 13.0024C298.532 13.0024 298.701 20.3575 298.701 24.3481C298.662 24.3437 298.624 24.341 298.586 24.3374C298.615 24.3476 298.645 24.3569 298.675 24.3677C297.47 26.5469 293.849 31.2654 289.17 31.8159L289.168 31.8091C288.99 31.8231 288.82 31.7672 288.658 31.6108C287.83 30.808 286.339 28.3457 286.339 25.0454C286.339 19.2248 290.274 13.0026 298.532 13.0024Z" fill="white"/>
<path d="M297.858 19.4115C297.677 21.7745 298.35 23.6668 298.709 24.3177L300.461 23.3665L301.237 20.638L299.935 17.9096C299.318 17.4257 298.038 17.0485 297.858 19.4115Z" fill="url(#paint6_linear_4045_8861)"/>
<circle cx="298.726" cy="14.7223" r="5.16126" fill="url(#paint7_linear_4045_8861)"/>
<circle cx="298.726" cy="12.6584" r="6.19352" fill="url(#paint8_linear_4045_8861)"/>
<path d="M308.36 31.7552C303.681 31.2047 299.93 26.5366 298.726 24.3574C303.268 22.7058 307.099 27.0527 308.36 29.3466V31.7552Z" fill="url(#paint9_linear_4045_8861)"/>
<g filter="url(#filter0_i_4045_8861)">
<path fill-rule="evenodd" clip-rule="evenodd" d="M300.785 53.7181C304.607 49.8961 310.805 49.896 314.627 53.7181C318.449 57.5403 318.449 63.7376 314.627 67.5599L312.639 69.5462L312.659 69.5667L301.307 80.9183C301.196 81.0296 301.077 81.1307 300.956 81.224C299.766 82.3071 297.953 82.324 296.744 81.2747C296.598 81.1685 296.459 81.0497 296.328 80.9183L283.012 67.6029C279.19 63.7806 279.19 57.5834 283.012 53.7611C286.835 49.9392 293.032 49.9389 296.854 53.7611L298.798 55.7044L300.785 53.7181Z" fill="url(#paint10_linear_4045_8861)"/>
</g>
<path fill-rule="evenodd" clip-rule="evenodd" d="M281.112 64.998C281.846 64.2106 283.074 63.5828 283.676 64.4756C283.802 64.6621 283.907 64.8945 283.976 65.1816C284.031 65.4117 284.057 65.6211 284.063 65.8105C288.412 65.9335 290.389 68.1719 290.389 71.7734C290.389 75.4787 288.296 77.9159 283.68 77.916C279.974 77.916 276.97 75.4788 276.97 71.7734C276.97 70.1386 277.555 68.7848 278.527 67.7822V67.7715L281.112 64.998Z" fill="#FFD1D1"/>
<path fill-rule="evenodd" clip-rule="evenodd" d="M281.112 64.998C281.846 64.2106 283.074 63.5828 283.676 64.4756C283.802 64.6621 283.907 64.8945 283.976 65.1816C284.031 65.4117 284.057 65.6211 284.063 65.8105C288.412 65.9335 290.389 68.1719 290.389 71.7734C290.389 75.4787 288.296 77.9159 283.68 77.916C279.974 77.916 276.97 75.4788 276.97 71.7734C276.97 70.1386 277.555 68.7848 278.527 67.7822V67.7715L281.112 64.998Z" fill="url(#paint11_linear_4045_8861)"/>
<path fill-rule="evenodd" clip-rule="evenodd" d="M318.326 64.998C317.592 64.2106 316.363 63.5827 315.762 64.4756C315.636 64.6621 315.532 64.8945 315.463 65.1816C315.407 65.4122 315.38 65.6218 315.375 65.8115C311.026 65.9345 309.049 68.172 309.049 71.7734C309.049 75.4789 311.142 77.9159 315.758 77.916C319.463 77.916 322.468 75.4791 322.468 71.7734C322.468 70.1393 321.883 68.7866 320.912 67.7842V67.7715L318.326 64.998Z" fill="#FFD1D1"/>
<path fill-rule="evenodd" clip-rule="evenodd" d="M318.326 64.998C317.592 64.2106 316.363 63.5827 315.762 64.4756C315.636 64.6621 315.532 64.8945 315.463 65.1816C315.407 65.4122 315.38 65.6218 315.375 65.8115C311.026 65.9345 309.049 68.172 309.049 71.7734C309.049 75.4789 311.142 77.9159 315.758 77.916C319.463 77.916 322.468 75.4791 322.468 71.7734C322.468 70.1393 321.883 68.7866 320.912 67.7842V67.7715L318.326 64.998Z" fill="url(#paint12_linear_4045_8861)"/>
<g filter="url(#filter1_f_4045_8861)">
<path d="M289.336 56.5875L291.499 57.0201C291.41 57.5594 290.305 58.2471 290.001 58.5867C289.622 59.0112 289.147 59.4528 288.704 59.4874C288.26 59.5219 287.656 58.8305 288.104 57.5249C288.462 56.4804 289.075 56.4648 289.336 56.5875Z" fill="#FFD0DC" style="mix-blend-mode:plus-lighter"/>
</g>
</g>
<defs>
<filter id="filter0_i_4045_8861" x="280.146" y="50.8516" width="39.172" height="35.7588" filterUnits="userSpaceOnUse" color-interpolation-filters="sRGB">
<feFlood flood-opacity="0" result="BackgroundImageFix"/>
<feBlend mode="normal" in="SourceGraphic" in2="BackgroundImageFix" result="shape"/>
<feColorMatrix in="SourceAlpha" type="matrix" values="0 0 0 0 0 0 0 0 0 0 0 0 0 0 0 0 0 0 127 0" result="hardAlpha"/>
<feOffset dx="1.82442" dy="4.56104"/>
<feGaussianBlur stdDeviation="3.14712"/>
<feComposite in2="hardAlpha" operator="arithmetic" k2="-1" k3="1"/>
<feColorMatrix type="matrix" values="0 0 0 0 0.94088 0 0 0 0 0 0 0 0 0 0.313627 0 0 0 0.28 0"/>
<feBlend mode="normal" in2="shape" result="effect1_innerShadow_4045_8861"/>
</filter>
<filter id="filter1_f_4045_8861" x="279.645" y="48.2341" width="20.155" height="19.5558" filterUnits="userSpaceOnUse" color-interpolation-filters="sRGB">
<feFlood flood-opacity="0" result="BackgroundImageFix"/>
<feBlend mode="normal" in="SourceGraphic" in2="BackgroundImageFix" result="shape"/>
<feGaussianBlur stdDeviation="4.15055" result="effect1_foregroundBlur_4045_8861"/>
</filter>
<linearGradient id="paint0_linear_4045_8861" x1="-7.10454e-09" y1="17.1707" x2="390.207" y2="60.1122" gradientUnits="userSpaceOnUse">
<stop stop-color="white"/>
<stop offset="0.168269" stop-color="#FFF0F4"/>
<stop offset="0.918269" stop-color="#FFB1C9"/>
</linearGradient>
<linearGradient id="paint1_linear_4045_8861" x1="263" y1="18.5854" x2="337.772" y2="20.9272" gradientUnits="userSpaceOnUse">
<stop stop-color="white"/>
<stop offset="0.252618" stop-color="#FFF0F4"/>
<stop offset="0.991955" stop-color="#FFD3E0"/>
</linearGradient>
<linearGradient id="paint2_linear_4045_8861" x1="298.726" y1="29.1738" x2="298.726" y2="88.3563" gradientUnits="userSpaceOnUse">
<stop stop-color="#FF5DA1"/>
<stop offset="0.778389" stop-color="#FFAACE"/>
</linearGradient>
<linearGradient id="paint3_linear_4045_8861" x1="303.301" y1="29.6963" x2="303.301" y2="42.416" gradientUnits="userSpaceOnUse">
<stop stop-color="#C93875"/>
<stop offset="1" stop-color="#FF016C"/>
</linearGradient>
<linearGradient id="paint4_linear_4045_8861" x1="302.572" y1="11.3967" x2="305.373" y2="25.701" gradientUnits="userSpaceOnUse">
<stop stop-color="#EAC6DE"/>
<stop offset="1" stop-color="#FFFEFE"/>
</linearGradient>
<linearGradient id="paint5_linear_4045_8861" x1="298.726" y1="41.2176" x2="298.726" y2="24.3574" gradientUnits="userSpaceOnUse">
<stop stop-color="#FFDCDC"/>
<stop offset="1" stop-color="#FFB2B2"/>
</linearGradient>
<linearGradient id="paint6_linear_4045_8861" x1="299.532" y1="17.5483" x2="299.532" y2="24.3177" gradientUnits="userSpaceOnUse">
<stop stop-color="#F5E2EE"/>
<stop offset="1" stop-color="#FBF3F7"/>
</linearGradient>
<linearGradient id="paint7_linear_4045_8861" x1="300.274" y1="19.8836" x2="303.887" y2="16.9588" gradientUnits="userSpaceOnUse">
<stop stop-color="#FC3367"/>
<stop offset="1" stop-color="#961E3D"/>
</linearGradient>
<linearGradient id="paint8_linear_4045_8861" x1="298.726" y1="6.46484" x2="298.726" y2="18.8519" gradientUnits="userSpaceOnUse">
<stop offset="0.319079" stop-color="#FDF0F9"/>
<stop offset="1" stop-color="#F0D6E7"/>
</linearGradient>
<linearGradient id="paint9_linear_4045_8861" x1="300.294" y1="23.6875" x2="307.487" y2="27.5312" gradientUnits="userSpaceOnUse">
<stop stop-color="#FBF3F7"/>
<stop offset="1" stop-color="white"/>
</linearGradient>
<linearGradient id="paint10_linear_4045_8861" x1="299.775" y1="74.564" x2="285.091" y2="58.5286" gradientUnits="userSpaceOnUse">
<stop stop-color="#FC3367"/>
<stop offset="1" stop-color="#FF779A"/>
</linearGradient>
<linearGradient id="paint11_linear_4045_8861" x1="283.679" y1="78.4737" x2="283.679" y2="65.2675" gradientUnits="userSpaceOnUse">
<stop stop-color="#FFB2B2"/>
<stop offset="1" stop-color="#FFDCDC"/>
</linearGradient>
<linearGradient id="paint12_linear_4045_8861" x1="315.758" y1="78.4737" x2="315.758" y2="65.2675" gradientUnits="userSpaceOnUse">
<stop stop-color="#FFB2B2"/>
<stop offset="1" stop-color="#FFDCDC"/>
</linearGradient>
</defs>
</svg>
