<svg width="24" height="24" viewBox="0 0 24 24" fill="none" xmlns="http://www.w3.org/2000/svg">
<path d="M4 8H6.7132C6.90062 8 7.08427 7.94733 7.2432 7.848L13.47 3.95625C14.136 3.53997 15 4.01881 15 4.80425V19.1958C15 19.9812 14.136 20.46 13.47 20.0438L7.2432 16.152C7.08427 16.0527 6.90062 16 6.7132 16H4C3.44772 16 3 15.5523 3 15V9C3 8.44772 3.44772 8 4 8Z" stroke="black" stroke-width="1.5" stroke-linecap="round" stroke-linejoin="round"/>
<path d="M17 5.32422C20.2537 5.80745 22.75 8.61189 22.75 12C22.75 15.3881 20.2536 18.1915 17 18.6748V17.1514C19.421 16.6846 21.25 14.5574 21.25 12C21.25 9.44258 19.4211 7.31456 17 6.84766V5.32422Z" fill="black"/>
<path d="M17 8.36816C18.5837 8.79193 19.75 10.2367 19.75 11.9541C19.75 13.6714 18.5836 15.1152 17 15.5391V13.9404C17.7389 13.5829 18.25 12.8302 18.25 11.9541C18.25 11.0778 17.7392 10.3234 17 9.96582V8.36816Z" fill="black"/>
</svg>
