<svg width="28" height="28" viewBox="0 0 28 28" fill="none" xmlns="http://www.w3.org/2000/svg">
<g clip-path="url(#clip0_205_3413)">
<g clip-path="url(#clip1_205_3413)">
<path fill-rule="evenodd" clip-rule="evenodd" d="M25.3334 13.8335C25.3334 20.1845 20.1843 25.3335 13.8334 25.3335C7.48241 25.3335 2.33337 20.1845 2.33337 13.8335C2.33337 7.48253 7.48241 2.3335 13.8334 2.3335C20.1843 2.3335 25.3334 7.48253 25.3334 13.8335Z" fill="#FC3367"/>
<path fill-rule="evenodd" clip-rule="evenodd" d="M19.3184 10.4629C19.7298 10.8742 19.7298 11.5412 19.3184 11.9525L13.4364 17.8346C13.2388 18.0321 12.9709 18.1431 12.6915 18.1431C12.4121 18.1431 12.1442 18.0321 11.9467 17.8346L8.34834 14.2363C7.93697 13.8249 7.93697 13.1579 8.34834 12.7466C8.75971 12.3352 9.42667 12.3352 9.83804 12.7466L12.6915 15.6L17.8287 10.4629C18.2401 10.0515 18.907 10.0515 19.3184 10.4629Z" fill="white"/>
</g>
</g>
<defs>
<clipPath id="clip0_205_3413">
<rect width="28" height="28" fill="white"/>
</clipPath>
<clipPath id="clip1_205_3413">
<rect x="2.33337" y="2.3335" width="23.3333" height="23.3333" rx="11.6667" fill="white"/>
</clipPath>
</defs>
</svg>
